<svg width="1841" height="1269" viewBox="0 0 1841 1269" fill="none" xmlns="http://www.w3.org/2000/svg">
<rect width="1837" height="1269" transform="translate(3)" fill="#85A59F"/>
<path d="M3.00054 262.914L3.00049 944.842C20.2122 969.953 88.7757 1019.52 225.336 1016.9C396.036 1013.62 579.12 768 783.231 771.275C987.342 774.55 1193.42 944.842 1381.74 944.842C1636.55 944.842 1636.94 769.086 1840 752.373L1840 262.914L3.00054 262.914Z" fill="#F6BF62"/>
<path d="M3.00049 710.256C20.2122 726.728 88.7757 759.244 225.336 757.525C396.036 755.377 579.12 594.248 783.231 596.397C987.342 598.545 1193.42 710.256 1381.74 710.256C1636.55 710.256 1636.94 594.961 1840 583.997" stroke="#F28583" stroke-width="7"/>
<path d="M1840 0.5L1840 708.859C1822.79 725.96 1754.22 759.716 1617.66 757.932C1446.96 755.701 1263.88 588.424 1059.77 590.655C855.658 592.885 649.579 708.859 461.262 708.859C206.452 708.859 206.058 589.164 3.00001 577.782L3.00002 0.500021L1840 0.5Z" fill="#F7EDE3"/>
</svg>
