<svg id="ej6iWXQHL8P1" xmlns="http://www.w3.org/2000/svg" xmlns:xlink="http://www.w3.org/1999/xlink" viewBox="0 0 230 320" shape-rendering="geometricPrecision" text-rendering="geometricPrecision"><g transform="matrix(.296855-.04374 0.04374 0.296855-84.57408-46.736284)" clip-rule="evenodd"><path id="ej6iWXQHL8P3" d="M871.919,564.102l-.904,117.15-.657,85.125c-1.199,155.367-128.063,277.393-283.36,272.543l-1.712-.05c-155.297-4.85-280.217-134.73-279.019-290.097l1.561-202.275c1.199-155.367,128.064-277.388,283.36-272.542l1.713.053c155.296,4.847,280.217,134.726,279.018,290.093Z" transform="matrix(.973362 0.069871-.067543 0.940932 57.096484-14.520683)" clip-rule="evenodd" fill="#110b00" stroke-linecap="round" stroke-linejoin="round" stroke-miterlimit="10"/><path id="ej6iWXQHL8P4" d="M744.976,615.67c11.349-26.294,39.053-39.623,61.878-29.772c22.826,9.852,32.129,39.154,20.781,65.449-11.349,26.294-39.053,39.623-61.879,29.771-22.825-9.852-32.129-39.154-20.78-65.448Z" transform="translate(-.263878 1.78274)" clip-rule="evenodd" fill="#fac4ab" stroke-linecap="round" stroke-linejoin="round" stroke-miterlimit="10"/><path id="ej6iWXQHL8P5" d="M325.575,536.642c22.175-184.722,166.036-202.1,235.436-206.796C703.8,320.184,810.911999,495.407655,806.854,572.545655C798.207002,736.933655,726.719,821.643,562.573,819.265c-192.355-2.787-256.849-117.268-236.998-282.623Z" transform="matrix(.97742 0 0 1.010402 18.174129-4.09432)" clip-rule="evenodd" fill="#ffcdb3" stroke-linecap="round" stroke-linejoin="round" stroke-miterlimit="10"/><path id="ej6iWXQHL8P6" d="M524.405,286.055c35.781-61.382,144.267-58.328,242.31,6.821c98.044,65.149,148.518,167.722,112.737,229.103-35.78,61.382-144.266,58.327-242.31-6.821-98.043-65.149-148.517-167.722-112.737-229.103Z" transform="matrix(.928602 0 0 0.874667 51.57648 54.830022)" clip-rule="evenodd" fill="#110b00" stroke-linecap="round" stroke-linejoin="round" stroke-miterlimit="10"/><path id="ej6iWXQHL8P7" d="M333.075,607.035c.117-17.153,19.535-30.926,43.371-30.764c23.835.163,43.063,14.199,42.946,31.352s-19.534,30.926-43.37,30.764c-23.836-.163-43.063-14.2-42.947-31.352Z" clip-rule="evenodd" fill="#ffb4a4" stroke-linecap="round" stroke-linejoin="round" stroke-miterlimit="10"/><path id="ej6iWXQHL8P8" d="M660.335,657.632c2.139-17.02,23.046-28.407,46.696-25.434c23.65,2.972,41.088,19.178,38.949,36.198-2.139,17.019-23.045,28.406-46.695,25.434-23.65-2.973-41.089-19.179-38.95-36.198Z" clip-rule="evenodd" fill="#ffb4a4" stroke-linecap="round" stroke-linejoin="round" stroke-miterlimit="10"/><path id="ej6iWXQHL8P9" d="M392.509,438.751c-3.625-8.978,10.734-20.756,32.073-26.307c21.338-5.55,41.576-2.772,45.201,6.206c3.626,8.978-10.734,20.756-32.072,26.307-21.339,5.551-41.576,2.772-45.202-6.206Z" clip-rule="evenodd" fill="#61065c" stroke-linecap="round" stroke-linejoin="round" stroke-miterlimit="10"/><path id="ej6iWXQHL8P10" d="M763.442,479.024c5.622-10.179-9.793-26.3-34.431-36.007-24.637-9.706-49.168-9.323-54.79.856-5.622,10.18,9.794,26.301,34.431,36.007c24.638,9.707,49.168,9.323,54.79-.856Z" transform="matrix(.901362 0 0 0.845386 70.904106 71.346429)" clip-rule="evenodd" fill="#61065c" stroke-linecap="round" stroke-linejoin="round" stroke-miterlimit="10"/><g transform="matrix(1.064772 0 0 1.098877-85.108116-48.600687)"><path id="ej6iWXQHL8P12" d="M410.259,542.654c0-18.904,10.493-34.229,23.437-34.229c12.943,0,23.436,15.325,23.436,34.229s-10.493,34.229-23.436,34.229c-12.944,0-23.437-15.325-23.437-34.229Z" transform="matrix(.840914 0 0 0.873034 132.452173 60.668247)" clip-rule="evenodd" stroke-linecap="round" stroke-linejoin="round" stroke-miterlimit="10"/><path id="ej6iWXQHL8P13" d="M439.004,530.33c0-3.79,3.072-6.862,6.862-6.862c3.789,0,6.862,3.072,6.862,6.862c0,3.789-3.073,6.861-6.862,6.861-3.79,0-6.862-3.072-6.862-6.861Z" transform="matrix(.924015 0.043876-.043781 0.922008 114.124076 14.618677)" clip-rule="evenodd" fill="#eee" stroke-linecap="round" stroke-linejoin="round" stroke-miterlimit="10"/></g><path id="ej6iWXQHL8P14" d="M326.997,1095.09c0-129.436,146.279-223.613,259.089-223.613c112.811,0,275.215,96.327,275.215,225.763c0,129.43-162.404,242.96-275.215,242.96-112.81,0-259.089-115.68-259.089-245.11Z" transform="matrix(.929811 0 0 0.891671 44.373315 93.93189)" clip-rule="evenodd" fill="#61065d" stroke-linecap="round" stroke-linejoin="round" stroke-miterlimit="10"/><g transform="translate(0 0.000001)"><path id="ej6iWXQHL8P16" d="M647.264,569.103c0-18.905,10.493-34.229,23.436-34.229s23.436,15.324,23.436,34.229c0,18.904-10.493,34.228-23.436,34.228s-23.436-15.324-23.436-34.228Z" transform="matrix(1.043187 0 0 1.023009-28.96552-13.09448)" clip-rule="evenodd" stroke-linecap="round" stroke-linejoin="round" stroke-miterlimit="10"/><path id="ej6iWXQHL8P17" d="M674.127,558.265c0-3.79,3.072-6.862,6.861-6.862c3.79,0,6.862,3.072,6.862,6.862c0,3.789-3.072,6.861-6.862,6.861-3.789,0-6.861-3.072-6.861-6.861Z" transform="translate(0-.000004)" clip-rule="evenodd" fill="#eee" stroke-linecap="round" stroke-linejoin="round" stroke-miterlimit="10"/></g><path d="M535.219,332.036c-7.223,42.09-4.766,108.831,45.109,151.603c43.971,37.709,100.844,64.289,170.954,48.41" transform="translate(8.48994 21.575776)" clip-rule="evenodd" fill="none" stroke="#110b00" stroke-width="3" stroke-linecap="round" stroke-linejoin="round" stroke-miterlimit="10"/><g transform="translate(.797083 0)" clip-rule="evenodd"><path id="ej6iWXQHL8P20" d="M285.437,506.994c7.853-65.884,64.264-113.329,125.998-105.97c61.734,7.358,105.414,66.732,97.561,132.616-7.852,65.884-64.264,113.328-125.998,105.97s-105.414-66.732-97.561-132.616Z" clip-rule="evenodd" fill="none" stroke="#6f3800" stroke-width="5" stroke-linecap="round" stroke-linejoin="round" stroke-miterlimit="10"/><path id="ej6iWXQHL8P21" d="M546.407,550.959c7.853-65.884,67.79-112.909,133.873-105.032c66.084,7.876,113.289,67.671,105.437,133.555-7.853,65.884-67.79,112.908-133.874,105.032-66.083-7.877-113.289-67.672-105.436-133.555Z" clip-rule="evenodd" fill="none" stroke="#6f3800" stroke-width="5" stroke-linecap="round" stroke-linejoin="round" stroke-miterlimit="10"/><path id="ej6iWXQHL8P22" d="M509.904053,532.049019c0,0,10.796947-19.299019,21.697947-18.000019s18.649,11.496,17.304,22.774" clip-rule="evenodd" fill="none" stroke="#6f3800" stroke-width="5" stroke-linecap="round" stroke-linejoin="round" stroke-miterlimit="10"/></g><path id="ej6iWXQHL8P23" d="M865.872,499.385c0,0,26.396,153.669,3.543,278.304-5.055,27.564-12.518,53.708-23.208,76.456" transform="matrix(1 0 0 0.770983-7.625972 153.070719)" clip-rule="evenodd" fill="none" stroke="#110b00" stroke-width="3" stroke-linecap="round" stroke-linejoin="round" stroke-miterlimit="10"/><path id="ej6iWXQHL8P24" d="M552.056,774.625h30.561c20.399,0,36.935,16.536,36.935,36.935v77.93c0,20.399-16.536,36.936-36.935,36.936h-30.561c-20.398,0-36.935-16.537-36.935-36.936v-77.93c0-20.399,16.537-36.935,36.935-36.935Z" clip-rule="evenodd" fill="#ffcdb3" stroke-linecap="round" stroke-linejoin="round" stroke-miterlimit="10"/><path id="ej6iWXQHL8P25" d="M507.162,611.663c-14.295,0-25.882-10.649-25.882-23.786c0-13.136,11.587-23.785,25.882-23.785" clip-rule="evenodd" fill="#ffcdb3" stroke="#f1aa89" stroke-width="5" stroke-linecap="round" stroke-linejoin="round" stroke-miterlimit="10"/><path id="ej6iWXQHL8P26" d="M225.34165,819.657033c0,0,13.496884-77.783121.000003-77.783121s-11.768363,47.29083-17.530088,46.714658-3.457034-100.22179-14.980483-99.266555-2.880863,78.677984-9.21876,78.677984-4.033208-92.341227-16.132829-91.188882s1.896897,86.718994-5.389448,86.718994-3.253138-73.715316-15.352759-69.556504s2.88086,74.026392-4.609381,74.026392-8.066414-40.330039-15.556656-40.330039-2.30469,73.088581,4.609379,95.544342s28.808621,33.182378,53.584036,33.182378s40.576986-36.739647,40.576986-36.739647Z" transform="matrix(1.228185 0 0 1.228185 49.091297-102.987752)" fill="#fac4ab" stroke-width="4.096"/><path id="ej6iWXQHL8P27" d="M508.43992,703.197693c3.043408-37.076152,83.121269-36.685209,81.304842,2.572791-.989699,21.39013-19.046673,16.830764-33.571622,16.24892-15.043115-.602601-50.679927,4.165873-47.73322-18.821711Z" transform="matrix(-.92613 0.022902-.017897-.72373 1072.945906 1194.392963)" fill="#ec8a75" stroke-width="4.096"/></g>
</svg>
